<?xml version="1.0" encoding="UTF-8" standalone="no"?>
<!-- Created with Inkscape (http://www.inkscape.org/) -->

<svg
   width="100"
   height="100"
   viewBox="0 0 26.458333 26.458333"
   version="1.1"
   id="svg1"
   inkscape:version="1.3.2 (091e20e, 2023-11-25, custom)"
   sodipodi:docname="logo.svg"
   xmlns:inkscape="http://www.inkscape.org/namespaces/inkscape"
   xmlns:sodipodi="http://sodipodi.sourceforge.net/DTD/sodipodi-0.dtd"
   xmlns="http://www.w3.org/2000/svg"
   xmlns:svg="http://www.w3.org/2000/svg">
  <sodipodi:namedview
     id="namedview1"
     pagecolor="#ffffff"
     bordercolor="#999999"
     borderopacity="1"
     inkscape:showpageshadow="2"
     inkscape:pageopacity="0"
     inkscape:pagecheckerboard="0"
     inkscape:deskcolor="#d1d1d1"
     inkscape:document-units="mm"
     inkscape:zoom="5.7941077"
     inkscape:cx="43.319871"
     inkscape:cy="49.101607"
     inkscape:window-width="1920"
     inkscape:window-height="1009"
     inkscape:window-x="-8"
     inkscape:window-y="-8"
     inkscape:window-maximized="1"
     inkscape:current-layer="layer1" />
  <defs
     id="defs1" />
  <g
     inkscape:label="Camada 1"
     inkscape:groupmode="layer"
     id="layer1">
    <path
       id="path1-9"
       style="fill:#0d0d0d;fill-opacity:1;stroke:none;stroke-width:0.443547;stroke-linecap:round;stroke-linejoin:round"
       d="M 13.134599 0.33331299 A 12.929361 12.929361 0 0 0 0.2056722 13.26224 A 12.929361 12.929361 0 0 0 13.134599 26.191683 A 12.929361 12.929361 0 0 0 26.064042 13.26224 A 12.929361 12.929361 0 0 0 13.134599 0.33331299 z M 13.167155 12.533602 A 0.38814577 0.38814577 0 0 1 13.555762 12.921692 A 0.38814577 0.38814577 0 0 1 13.167155 13.309782 A 0.38814577 0.38814577 0 0 1 12.779065 12.921692 A 0.38814577 0.38814577 0 0 1 13.167155 12.533602 z " />
    <path
       id="path1"
       style="fill:#48005d;fill-opacity:1;stroke:none;stroke-width:0.222666;stroke-linecap:round;stroke-linejoin:round"
       d="M 13.169939,6.6151001 A 6.4907084,6.4907084 0 0 0 6.6793792,13.10566 6.4907084,6.4907084 0 0 0 13.169939,19.59622 6.4907084,6.4907084 0 0 0 19.661016,13.10566 6.4907084,6.4907084 0 0 0 13.169939,6.6151001 Z m -0.02274,5.8967979 a 0.38814577,0.38814577 0 0 1 0.38809,0.38809 0.38814577,0.38814577 0 0 1 -0.38809,0.38809 0.38814577,0.38814577 0 0 1 -0.38809,-0.38809 0.38814577,0.38814577 0 0 1 0.38809,-0.38809 z" />
  </g>
</svg>
